<?xml version="1.0" encoding="utf-8"?>
<!-- Generator: Adobe Illustrator 27.0.0, SVG Export Plug-In . SVG Version: 6.00 Build 0)  -->
<svg version="1.1" id="Layer_1" xmlns="http://www.w3.org/2000/svg" xmlns:xlink="http://www.w3.org/1999/xlink" x="0px" y="0px"
	 viewBox="0 0 261.3 56" style="enable-background:new 0 0 261.3 56;" xml:space="preserve">
<style type="text/css">
	.st0{clip-path:url(#SVGID_00000101811781631931884450000008620105750817491600_);}
	.st1{fill:#141414;}
</style>
<g>
	<defs>
		<rect id="SVGID_1_" width="261.3" height="56"/>
	</defs>
	<clipPath id="SVGID_00000039115440609848684790000006426090653505494428_">
		<use xlink:href="#SVGID_1_"  style="overflow:visible;"/>
	</clipPath>
	<g style="clip-path:url(#SVGID_00000039115440609848684790000006426090653505494428_);">
		<path class="st1" d="M53.2,36.3V22.7c0,0,0-0.3-0.4-0.3c-0.3,0-0.3,0.3-0.3,0.3v13.6c0,0,0,0.3,0.4,0.3
			C53.3,36.6,53.2,36.3,53.2,36.3z"/>
		<path class="st1" d="M0,56h261.3V0H0V56z M23.2,36.6c0.3,0,0.3-0.3,0.3-0.3V21.5h1v14.8c0,0,0.1,1.1-1.2,1.1
			c-1.3,0-1.3-1.1-1.3-1.1V21.5h1v14.8C23,36.3,22.9,36.6,23.2,36.6z M56.2,39.8H19.9v-1.5h36.4V39.8z M28,37.4V21.5h0.8l1,8.5v-8.5
			h0.8v15.9h-0.8l-1-9.6v9.6H28z M36.2,28.5v0.9h-1v7.2h1.4v0.8h-2.4V21.5h2.1v0.8h-1v6.2H36.2z M40.9,36.6c0.2,0,0.2-0.3,0.2-0.3
			v-3.7c0-1.5-1.5-4.9-1.5-6.9v-3c0,0,0-1.1,1.3-1.1c1.3,0,1.2,1.1,1.2,1.1v3.6h-1v-3.6c0,0,0-0.3-0.3-0.3c-0.3,0-0.2,0.3-0.2,0.3
			v3.6c0,1.2,1.5,4.7,1.5,6.6c0,0.8,0,3.4,0,3.4s0,1.1-1.3,1.1c-1.3,0-1.2-1.1-1.2-1.1v-4h1v4C40.6,36.3,40.6,36.6,40.9,36.6z
			 M46.8,22.3c-0.3,0-0.3,0.3-0.3,0.3v13.6c0,0,0.1,0.3,0.3,0.3c0.3,0,0.3-0.3,0.3-0.3v-4h1v4c0,0,0,1.1-1.3,1.1
			c-1.3,0-1.2-1.1-1.2-1.1V22.7c0,0,0-1.1,1.2-1.1c1.2,0,1.3,1.1,1.3,1.1v3.6h-1v-3.6C47.1,22.7,47.1,22.3,46.8,22.3z M51.5,36.3
			V22.7c0,0,0-1.1,1.3-1.1c1.3,0,1.3,1.1,1.3,1.1v13.6c0,0,0,1.1-1.3,1.1C51.5,37.4,51.5,36.3,51.5,36.3z M19.9,19.1h36.4v1.5H19.9
			V19.1z M22.8,18.1l15.2-4.7l15,4.7h-4.4l-10.6-3.2l-10.8,3.2H22.8z M19.9,16.4l18.2-5.6l18.2,5.6v1.6l-18.3-5.5l-18.1,5.5V16.4z
			 M17.8,40.9h40.4v1.5H17.8V40.9z M60.2,45H15.9v-1.5h44.3V45z M259.7,54.4H76.1V1.6h183.6V54.4z"/>
		<path class="st1" d="M218,33.9c-1.2,1.2-2.7,1.8-4.3,1.8c-3.4,0-6.1-2.8-6.1-6.1c0-3.4,2.7-6.1,6.1-6.1c1.6,0,3.2,0.6,4.3,1.8
			l0.2,0.2l2.8-5.9l-0.1-0.1c-2.1-1.5-4.6-2.3-7.2-2.3c-6.9,0-12.5,5.6-12.5,12.5c0,6.9,5.6,12.5,12.5,12.5c2.6,0,5.1-0.8,7.2-2.3
			l0.1-0.1l-2.7-5.8L218,33.9z"/>
		<path class="st1" d="M235.7,35.7c-3.4,0-6.1-2.7-6.1-6.1s2.7-6.1,6.1-6.1c3.4,0,6.1,2.7,6.1,6.1S239.1,35.7,235.7,35.7z
			 M235.7,17.1c-6.9,0-12.4,5.6-12.4,12.4c0,6.9,5.6,12.4,12.4,12.4s12.4-5.6,12.4-12.4C248.2,22.7,242.6,17.1,235.7,17.1z"/>
		<path class="st1" d="M99.6,17.8v12.9c0,1,0.1,2.7,1.3,3.8c0.5,0.5,1.5,1.1,3.1,1.1c1.4,0,2.5-0.5,3.2-1.1c1.1-1,1.3-2.6,1.3-3.8
			V17.8h7.5v13.6c0,2.7-0.3,5.2-2.6,7.5c-2.7,2.6-6.6,3-9.4,3c-2.9,0-6.7-0.4-9.4-3c-2.1-2.1-2.6-4.4-2.6-7V17.8H99.6z"/>
		<path class="st1" d="M121.8,17.8h7.5v2.8c2.3-2.9,5-3.4,7.2-3.4c2,0,4.7,0.4,6.7,2.4c2.2,2.2,2.4,5,2.4,6.9v14.8h-7.5v-12
			c0-1.5-0.1-3.4-1.3-4.7c-0.6-0.6-1.5-1-2.9-1c-1.6,0-2.6,0.6-3.1,1.3c-1.3,1.3-1.5,2.9-1.5,4.4v12h-7.5V17.8z"/>
		<path class="st1" d="M168.5,26.3c-0.1-0.2-0.4-1.7-1.5-2.7c-0.8-0.8-2-1.3-3.6-1.3c-1.9,0-3.1,0.8-3.8,1.5
			c-0.6,0.6-1.1,1.5-1.3,2.5H168.5z M175.4,30.8H158c0,1.3,0.5,2.9,1.4,4c1.2,1.3,2.7,1.5,3.9,1.5c1.1,0,2.3-0.2,3-0.7
			c0.1-0.1,1-0.6,1.6-1.9l7.1,0.7c-1,3.3-3.1,5-4.5,5.9c-2.3,1.4-4.8,1.7-7.4,1.7c-3.5,0-6.6-0.6-9.3-3.4c-2-2-3.5-5.1-3.5-9
			c0-3.3,1.2-6.8,3.6-9.2c2.8-2.8,6.3-3.4,8.9-3.4c2.6,0,6.4,0.5,9.3,3.5c2.8,2.9,3.3,6.6,3.3,9.5L175.4,30.8L175.4,30.8z"/>
		<path class="st1" d="M194.4,23.8c-1.2-0.7-2.7-1.3-4.1-1.3c-0.8,0-1.7,0.2-2.1,0.7c-0.3,0.3-0.5,0.7-0.5,1c0,0.5,0.4,0.8,0.7,1
			c0.5,0.3,1.3,0.5,2.3,0.8l2,0.6c1.3,0.4,2.7,0.9,3.9,2c1.4,1.3,1.8,2.7,1.8,4.5c0,3.1-1.4,5.1-2.4,6.1c-2.3,2.3-5.1,2.7-7.6,2.7
			c-3.1,0-6.5-0.7-9.6-3.3l3.2-5.1c0.7,0.6,1.8,1.4,2.6,1.7c1,0.5,2.1,0.7,3.1,0.7c0.5,0,1.7,0,2.4-0.5c0.5-0.4,0.8-0.9,0.8-1.5
			c0-0.4-0.2-0.9-0.8-1.4c-0.5-0.3-1.2-0.5-2.3-0.8l-1.9-0.6c-1.4-0.4-2.8-1.2-3.8-2.1c-1.1-1.2-1.7-2.5-1.7-4.2
			c0-2.3,0.9-4.1,2.3-5.4c2.1-1.9,4.9-2.4,7.1-2.4c3.4,0,5.9,0.9,7.7,2L194.4,23.8z"/>
	</g>
</g>
</svg>
