<?xml version="1.0" encoding="utf-8"?>
<!-- Generator: Adobe Illustrator 28.3.0, SVG Export Plug-In . SVG Version: 6.00 Build 0)  -->
<svg version="1.1" id="a" xmlns="http://www.w3.org/2000/svg" xmlns:xlink="http://www.w3.org/1999/xlink" x="0px" y="0px"
	 viewBox="0 0 1920 1080" style="enable-background:new 0 0 1920 1080;" xml:space="preserve">
<style type="text/css">
	.st0{fill:#FFFFFF;}
</style>
<g>
	<path class="st0" d="M838.3,393.9h15.2l22.3,72.3l20.6-72.3h17.3l-28.4,97.4H868l-21.9-71.6L824,491.3h-17.4L778,393.9h17.4
		l20.8,72.3L838.3,393.9z"/>
	<path class="st0" d="M923.1,458.8h16.7v97.4h-16.7V458.8z"/>
	<path class="st0" d="M997.4,538.7h-31.6l-0.1-14.9h79.9l0.1,14.9H1014v82.5h-16.6V538.7L997.4,538.7z"/>
	<path class="st0" d="M1124.6,686.1h-16.7v-42.6h-45.8v42.6h-16.7v-97.4h16.7V629h45.8v-40.3h16.7V686.1z"/>
	<path class="st0" d="M283.8,669.9c-22.3-13.4-40-31.5-53-54.4s-19.5-47.9-19.5-75.2c0-27.5,6.5-52.8,19.5-75.8s30.6-41.2,53-54.5
		c22.3-13.4,47.1-20.1,74.4-20.1c30.1,0,55.6,6.7,76.6,20.1c20.9,13.4,38.5,32.8,52.8,58.2l-30,18.3c-6.8-12.2-14.5-23-23.2-32.5
		s-19.4-17.2-32.1-23.2s-27.4-9-44-9c-20.5,0-39.4,5.3-56.5,16s-30.7,25.1-40.5,43.2c-9.9,18.2-14.8,37.8-14.8,58.8
		c0,20.8,5,40.2,15,58.2c10,18.1,23.5,32.5,40.5,43.4s35.8,16.4,56.3,16.4c19.2,0,35.7-3.6,49.5-10.9c13.8-7.3,27-17.9,39.7-31.9
		c2.6-2.9,5.1-5.6,7.4-8.2v-34.7H349.2v-31.2h140.6v144.9h-23.4l-7-46.4c-4.7,7.8-12.1,15.6-22.2,23.4
		c-10.1,7.8-22.1,14.2-35.8,19.3c-13.8,5.1-28.2,7.6-43.2,7.6C330.9,690,306.1,683.3,283.8,669.9L283.8,669.9z"/>
	<path class="st0" d="M525.8,686.1V393.9h88.4c26.5,0,50.9,6.6,73.2,19.7s40.1,30.8,53.2,53.2c13.1,22.3,19.7,46.8,19.7,73.2
		s-6.6,50.9-19.7,73.2c-13.1,22.3-30.8,40.1-53.2,53.2c-22.3,13.1-46.8,19.7-73.2,19.7L525.8,686.1L525.8,686.1z M611.1,654.9
		c22.9,0,43.1-5.6,60.6-16.8s31-25.6,40.5-43.2c9.5-17.7,14.2-36,14.2-54.9s-4.7-37.3-14.2-54.9c-9.5-17.7-23-32.1-40.5-43.2
		c-17.5-11.2-37.7-16.8-60.6-16.8h-50.3V655L611.1,654.9L611.1,654.9z"/>
	<path class="st0" d="M1232.2,669.9c-22.3-13.4-40-31.5-53-54.4s-19.5-47.9-19.5-75.2c0-27.5,6.5-52.8,19.5-75.8s30.6-41.2,53-54.5
		c22.3-13.4,47.1-20.1,74.4-20.1c30.1,0,55.6,6.7,76.6,20.1c20.9,13.4,38.5,32.8,52.8,58.2l-30,18.3c-6.8-12.2-14.5-23-23.2-32.5
		s-19.4-17.2-32.1-23.2s-27.4-9-44-9c-20.5,0-39.4,5.3-56.5,16s-30.7,25.1-40.5,43.2c-9.9,18.2-14.8,37.8-14.8,58.8
		c0,20.8,5,40.2,15,58.2c10,18.1,23.5,32.5,40.5,43.4s35.8,16.4,56.3,16.4c19.2,0,35.7-3.6,49.5-10.9c13.8-7.3,27-17.9,39.7-31.9
		c2.6-2.9,5.1-5.6,7.4-8.2v-34.7h-105.6v-31.2h140.6v144.9h-23.4l-7-46.4c-4.7,7.8-12.1,15.6-22.2,23.4
		c-10.1,7.8-22.1,14.2-35.8,19.3c-13.8,5.1-28.2,7.6-43.2,7.6C1279.3,690,1254.5,683.3,1232.2,669.9L1232.2,669.9z"/>
	<path class="st0" d="M1474.2,686.1V393.9h88.4c26.5,0,50.9,6.6,73.2,19.7c22.3,13.1,40.1,30.8,53.2,53.2
		c13.1,22.3,19.7,46.8,19.7,73.2s-6.6,50.9-19.7,73.2s-30.8,40.1-53.2,53.2c-22.3,13.1-46.8,19.7-73.2,19.7L1474.2,686.1
		L1474.2,686.1z M1559.5,654.9c22.9,0,43.1-5.6,60.6-16.8s31-25.6,40.5-43.2c9.5-17.7,14.2-36,14.2-54.9s-4.7-37.3-14.2-54.9
		c-9.5-17.7-23-32.1-40.5-43.2c-17.5-11.2-37.7-16.8-60.6-16.8h-50.3V655L1559.5,654.9L1559.5,654.9z"/>
</g>
</svg>
