<?xml version="1.0" encoding="utf-8"?>
<!-- Generator: Adobe Illustrator 28.3.0, SVG Export Plug-In . SVG Version: 6.00 Build 0)  -->
<svg version="1.1" id="a" xmlns="http://www.w3.org/2000/svg" xmlns:xlink="http://www.w3.org/1999/xlink" x="0px" y="0px"
	 viewBox="0 0 1920 1080" style="enable-background:new 0 0 1920 1080;" xml:space="preserve">
<style type="text/css">
	.st0{fill:#FFFFFF;}
</style>
<path class="st0" d="M823.5,524.2c-7,4.1-14.6,6.1-22.8,6.1h-52v-91.1h52c8.2,0,15.7,2,22.8,6.1c7,4.1,12.6,9.5,16.6,16.3
	c4.1,6.8,6.1,14.3,6.1,22.4c0,8.4-2,16.1-6.1,23.3C836.1,514.5,830.5,520.1,823.5,524.2z M1001.6,538.3c-7.7-4.2-16.8-6.3-27.2-6.3
	c-10.2,0-19.2,2.1-27,6.3s-13.8,9.2-17.8,15.1c-4.1,5.9-6.1,11.1-6.1,15.6H1025c0-4.5-2-9.7-5.9-15.6
	C1015.1,547.5,1009.3,542.5,1001.6,538.3z M1640.6,599.3c-1.8,0.5-3.7,0.9-5.8,1.4c-9.7,2.5-17.3,5.9-22.8,10.2
	c-5.4,4.3-8.2,9.1-8.2,14.3c0,3.6,1,6.9,2.9,9.7s4.8,5,8.5,6.6s8.4,2.4,14.1,2.4c6.8,0,14.4-1.6,22.8-4.9
	c8.4-3.3,15.5-8.2,21.4-14.8s8.8-14.3,8.8-23.1v-15.6c-6.1,2.7-12.9,5.2-20.2,7.5C1654.8,595.1,1647.6,597.3,1640.6,599.3z
	 M570.3,539.5c-8.2-5-17-7.5-26.5-7.5c-9.7,0-18.7,2.5-26.8,7.5c-8.2,5-14.7,11.7-19.5,20c-4.9,8.4-7.3,17.6-7.3,27.5
	c0,10,2.4,19.1,7.3,27.5s11.4,15,19.5,19.9c8.2,4.9,17.1,7.3,26.8,7.3c9.5,0,18.4-2.4,26.7-7.3c8.3-4.9,14.8-11.5,19.5-19.9
	c4.8-8.4,7.1-17.6,7.1-27.5c0-10-2.4-19.1-7.3-27.5C585,551.2,578.5,544.5,570.3,539.5z M1786,337.3v404.3h-671.7V640.4
	c2.7,6.1,6.9,11.4,12.6,16c5.7,4.5,12.3,8,20,10.4s16.2,3.6,25.5,3.6c12.2,0,24-3.4,35.3-10.2s20.4-16.4,27.4-28.9
	c6.9-12.5,10.4-26.8,10.4-43.1c0-16.5-3.3-31.3-9.9-44.2s-15.4-22.9-26.5-29.9s-23.3-10.5-36.7-10.5c-11.1,0-21.1,1.9-30.1,5.8
	c-8.9,3.9-16.4,9.2-22.3,16c-1.6,1.8-3.5,4.5-5.8,8.2v-26.5h-29.9v234.8H132V337.3H1786z M428.2,412.1h-30.6v209l-129.8-209h-43.2
	v254.8h30.6V450.5l134.9,216.4h38.1L428.2,412.1L428.2,412.1z M627.1,587.1c0-14.9-3.7-28.8-11.2-41.6s-17.6-23-30.4-30.6
	c-12.8-7.6-26.7-11.4-41.6-11.4c-15.2,0-29.1,3.7-41.8,11.2c-12.7,7.5-22.8,17.7-30.2,30.6c-7.5,12.9-11.2,26.8-11.2,41.8
	c0,15.2,3.7,29.1,11.2,41.8s17.6,22.8,30.2,30.2c12.7,7.5,26.6,11.2,41.8,11.2c14.9,0,28.8-3.7,41.6-11.2s22.9-17.6,30.4-30.2
	C623.3,616.2,627.1,602.2,627.1,587.1z M888.1,666.9l-64.6-112.5c9.7-3.2,18.5-8,26.3-14.6s14.1-14.8,18.9-24.8
	c4.8-10,7.1-21.3,7.1-34c0-11.6-3.1-22.6-9.3-33.3c-6.2-10.6-14.8-19.3-25.8-25.8c-11-6.6-23.4-9.9-37.2-9.9h-85.3v254.8h30.6V557.5
	h41.8l61.2,109.4H888.1z M1056.9,591.5c0-16.8-3.6-31.9-10.7-45.4s-17-24-29.6-31.4c-12.6-7.5-26.7-11.2-42.3-11.2
	c-14.5,0-28,3.8-40.6,11.4c-12.6,7.6-22.5,17.8-29.9,30.6s-11,26.7-11,41.6c0,15.2,3.7,29.1,11,41.8c7.4,12.7,17.3,22.8,29.7,30.2
	c12.5,7.5,26,11.2,40.8,11.2c14.5,0,27-2.4,37.5-7.3c10.5-4.9,18.8-10.3,24.8-16.3s11-12.2,15.1-18.5l-25.1-15.3
	c-4.1,5.7-8.8,10.6-14.1,14.9c-5.3,4.3-11.2,7.7-17.7,10.2s-13.3,3.7-20.6,3.7c-10,0-18.9-2.2-26.8-6.6
	c-7.9-4.4-14.2-10.2-18.7-17.5c-4.5-7.2-6.8-14.7-6.8-22.4h134.9L1056.9,591.5L1056.9,591.5z M1302.7,412.1h-29.9v254.8h29.9V412.1z
	 M1370.3,506.9h-29.9v160h29.9V506.9z M1377.7,450.5c0-6.1-2.2-11.4-6.6-15.8s-9.7-6.6-15.8-6.6c-6.1,0-11.4,2.2-15.8,6.6
	s-6.6,9.7-6.6,15.8c0,6.3,2.2,11.7,6.6,16s9.7,6.5,15.8,6.5c6.1,0,11.4-2.1,15.8-6.5C1375.5,462.2,1377.7,456.8,1377.7,450.5z
	 M1427.2,587.1c0-9.5,2.4-18.4,7.1-26.7c4.8-8.3,11.2-14.8,19.2-19.7s16.6-7.3,25.7-7.3c10.2,0,19.1,2.2,26.8,6.6
	c7.7,4.4,14.4,10.6,20,18.5c0.5,0.7,0.9,1.4,1.4,2l25.8-16l-1-1.4c-4.8-6.6-10-12.7-15.8-18.3c-5.8-5.7-13.5-10.6-23.1-14.9
	c-9.6-4.3-21-6.5-34.1-6.5c-14.5,0-28,3.8-40.6,11.4c-12.6,7.6-22.5,17.8-29.9,30.6s-11,26.7-11,41.6c0,15.2,3.7,29.1,11,41.8
	c7.4,12.7,17.3,22.8,29.7,30.2c12.5,7.5,26,11.2,40.8,11.2c14.3,0,26.3-2.3,36.2-7c9.9-4.6,17.4-9.8,22.8-15.5
	c5.3-5.7,10.2-12,14.8-19l0.3-0.7l-25.1-15.3c-0.5,0.5-0.9,1-1.4,1.7c-5.9,8.6-12.7,15.1-20.6,19.5c-7.8,4.4-16.8,6.6-27,6.6
	c-9.3,0-17.9-2.4-25.8-7.1c-7.9-4.8-14.3-11.3-19-19.5C1429.6,605.8,1427.2,596.8,1427.2,587.1z M1723.5,666.9
	c-2.9-5.7-5.2-10.9-6.8-15.8c-1.6-4.9-2.7-9.9-3.4-14.9c-0.7-5.1-1-10.9-1-17.5v-53.3c0-11.6-2.7-22-8-31.4s-13-16.8-23.1-22.3
	c-10.1-5.4-21.8-8.2-35.2-8.2c-13.8,0-25.7,2.4-35.7,7.3c-10,4.9-17.7,11.2-23.3,18.9c-5.6,7.7-9.1,15.9-10.7,24.5l28.9,4.1
	c1.6-7.7,5.7-14,12.4-18.9c6.7-4.9,15.6-7.3,26.7-7.3c11.6,0,20.8,2.7,27.7,8.2c6.9,5.4,10.4,13.1,10.4,23.1l-54.4,13.3
	c-18.3,4.5-32.1,11-41.3,19.5c-9.2,8.5-13.8,18.2-13.8,29c0,7.9,1.9,15.3,5.8,22.3c3.8,6.9,9.6,12.5,17.2,16.6
	c7.6,4.2,16.8,6.3,27.7,6.3c7.9,0,16.1-1.6,24.6-4.9c8.5-3.3,16-7.6,22.4-12.9c6.5-5.3,10.7-11,12.7-17.2c0.9,7,2,13,3.2,18
	s2.9,9.1,4.9,12.2c0,0.2,0.1,0.5,0.2,0.7s0.3,0.5,0.5,0.7L1723.5,666.9L1723.5,666.9z M1139.9,636.7c7.8,3.9,15.8,5.8,24,5.8
	c8.8,0,17.2-2.2,25.1-6.6c7.9-4.4,14.3-10.8,19.2-19c4.9-8.3,7.3-18.1,7.3-29.4c0-11.3-2.4-21.1-7.3-29.4
	c-4.9-8.3-11.3-14.6-19.2-19c-7.9-4.4-16.3-6.6-25.1-6.6c-7.9,0-15.6,1.8-23.1,5.3s-13.8,9.1-18.9,16.6c-5.1,7.6-8,17.2-8.7,28.7
	v4.4c0,12.5,2.5,22.8,7.5,31.1C1125.7,626.8,1132.1,632.8,1139.9,636.7z"/>
</svg>
