<?xml version="1.0" encoding="utf-8"?>
<!-- Generator: Adobe Illustrator 28.3.0, SVG Export Plug-In . SVG Version: 6.00 Build 0)  -->
<svg version="1.1" id="a" xmlns="http://www.w3.org/2000/svg" xmlns:xlink="http://www.w3.org/1999/xlink" x="0px" y="0px"
	 viewBox="0 0 1920 1080" style="enable-background:new 0 0 1920 1080;" xml:space="preserve">
<style type="text/css">
	.st0{fill:#E5E5E5;}
</style>
<g>
	<path class="st0" d="M1062.3,522.2c-13.1-9.1-23.2-20.8-30.3-35.2c-7.1-14.4-10.2-29.9-9.1-46.4c1.1-16.3,6.1-31.2,15-44.7
		c9-13.4,20.6-23.9,34.8-31.3c14.3-7.4,29.3-10.6,45.2-9.5c14.3,0.9,26.6,4.1,36.8,9.5c10.2,5.4,18.3,11.4,24.2,18
		c5.9,6.6,11.2,13.7,15.9,21.2l1,1.6l-29.3,15.6c-0.4-0.8-0.9-1.5-1.3-2.3c-5.6-9.1-12.5-16.3-20.6-21.7c-8.1-5.4-17.7-8.4-28.8-9.2
		c-9.9-0.6-19.4,1.4-28.5,6.1s-16.6,11.5-22.4,20.2s-9,18.2-9.7,28.6c-0.7,10.6,1.3,20.6,5.9,30s11.1,16.9,19.4,22.7
		c8.3,5.8,17.5,9,27.7,9.6c11.1,0.7,21.1-1,30-5.3s17.8-11.9,23.8-19.9c0.8-1,1.4-1.9,1.4-1.9l26.6,18.6l-0.4,0.7
		c-5.5,7.3-11.3,13.9-17.5,19.7s-14.9,10.9-26,15.3c-11.1,4.4-24.4,6-40,5C1090,536.4,1075.4,531.3,1062.3,522.2L1062.3,522.2z"/>
	<path class="st0" d="M1259.2,367.1l30.1,12.8l-52.8,123.9l3-2.4c11.3-7.6,22.6-11.5,33.9-11.8s22.1,1.7,32.4,6.1
		c11.2,4.8,20.3,11.5,27.4,20.2s11.4,18.9,12.9,30.5c1.5,11.7-0.6,24.3-6.4,37.7l-43.4,102l-30.1-12.8l38.8-91
		c6.6-15.5,8-28.5,4.1-39.1c-3.9-10.5-11.8-18.4-23.9-23.5c-9.1-3.9-18.1-5.2-27-4s-16.9,4.9-24.1,11s-13.1,14.2-17.7,24.4
		l-36.4,85.5l-30.1-12.8L1259.2,367.1L1259.2,367.1z"/>
	<path class="st0" d="M696.3,751l-90.7,20.5l-6.6-29l214-48.4l6.6,29L729,743.6l55,243l-32.6,7.4L696.3,751L696.3,751z"/>
	<path class="st0" d="M876.9,396.2C863,388,852,377,843.8,363.1c-8.2-13.9-12.3-29.1-12.3-45.7c0-16.4,4.1-31.6,12.3-45.7
		s19.2-25.3,33.1-33.5c13.9-8.2,29.1-12.3,45.7-12.3c16.4,0,31.5,4.2,45.6,12.5c14,8.3,25.1,19.5,33.3,33.5s12.3,29.2,12.3,45.6
		c0,16.6-4.1,31.9-12.3,45.7c-8.2,13.9-19.3,24.9-33.3,33.1s-29.2,12.3-45.6,12.3C906,408.5,890.8,404.4,876.9,396.2L876.9,396.2z
		 M951.8,369.3c9-5.3,16.2-12.6,21.4-21.8c5.2-9.2,7.8-19.2,7.8-30.1s-2.7-20.9-8-30.1s-12.5-16.5-21.4-21.9
		c-8.9-5.5-18.6-8.2-29-8.2c-10.7,0-20.5,2.7-29.4,8.2s-16.1,12.8-21.4,21.9c-5.3,9.2-8,19.2-8,30.1s2.7,21,8,30.1
		c5.3,9.2,12.5,16.4,21.4,21.8c8.9,5.3,18.7,8,29.4,8C933.1,377.3,942.8,374.6,951.8,369.3L951.8,369.3z"/>
	<path class="st0" d="M1065.4,328.5c-13.9-8.2-24.9-19.2-33.1-33.1s-12.3-29.1-12.3-45.7c0-16.4,4.1-31.6,12.3-45.7
		c8.2-14.1,19.2-25.3,33.1-33.5s29.1-12.3,45.7-12.3c16.4,0,31.6,4.2,45.6,12.5s25.1,19.5,33.3,33.5c8.2,14,12.3,29.2,12.3,45.6
		c0,16.6-4.1,31.9-12.3,45.7c-8.2,13.9-19.3,24.9-33.3,33.1s-29.2,12.3-45.6,12.3C1094.5,340.8,1079.3,336.7,1065.4,328.5
		L1065.4,328.5z M1140.3,301.6c9-5.3,16.2-12.6,21.4-21.8c5.2-9.2,7.8-19.2,7.8-30.1s-2.7-20.9-8-30.1c-5.3-9.2-12.5-16.5-21.4-21.9
		c-8.9-5.5-18.6-8.2-29-8.2c-10.7,0-20.5,2.7-29.4,8.2s-16.1,12.8-21.4,21.9c-5.3,9.2-8,19.2-8,30.1c0,10.9,2.7,21,8,30.1
		c5.3,9.2,12.5,16.4,21.4,21.8c8.9,5.3,18.7,8,29.4,8C1121.6,309.6,1131.3,306.9,1140.3,301.6L1140.3,301.6z"/>
	<path class="st0" d="M606.2,407.5l-38.7,234.1l-33-5.5L580,360.9l51.4,8.5l48.3,241.7l123.4-213.3l51.4,8.5L809,681.4l-33-5.5
		l38.7-234.1L687.2,661.3l-30.8-5.1L606.2,407.5L606.2,407.5z"/>
	<path class="st0" d="M917.4,656.3c-10.6-3.2-19.6-9.3-27.1-18.3s-12.6-20.8-15.4-35.1L854.3,494l32.2-6.1L906.2,592
		c2.5,13.4,8.2,23.1,16.8,29c8.7,5.9,19.3,7.7,31.7,5.4c10-1.9,18.3-5.9,25-12.1c6.6-6.2,11.2-13.9,13.8-23.2
		c2.5-9.3,2.7-19.6,0.6-30.8l-17-89.5l32.2-5.7l32.5,171.7l-32.2,6.1c0,0-4.5-23.8-5.7-30.3l-1.2,3.6c-5.2,12.3-12.5,21.9-21.7,28.5
		c-9.2,6.7-19.2,11-29.9,13C939.2,659.9,928,659.5,917.4,656.3L917.4,656.3z"/>
	<path class="st0" d="M728.2,143.8L637.7,165l-6.8-29l213.6-50.1l6.8,29l-90.5,21.2l56.9,242.6l-32.6,7.6L728.2,143.8z"/>
	<path class="st0" d="M895.2,925.7l5.6-12.1l-76.4-177.4l35.3,1l58.9,138.2l66.7-134.6l35.3,1L919.2,945.4
		c-3.7,7.6-8.3,15-13.8,22.1c-5.5,7.2-13,13.5-22.3,18.9s-20.2,8-32.6,7.6c-13.4-0.4-24.1-3.5-32.3-9.5c-8.1-5.9-15-12.6-20.5-19.9
		l22.2-20.6c5.3,6.3,10,11,14.3,14s10.1,4.6,17.5,4.8c6.2,0.2,11.6-0.8,16.3-2.9c4.6-2.1,8.9-5.5,12.8-10.1
		c3.9-4.6,7.8-10.8,11.7-18.6L895.2,925.7L895.2,925.7z"/>
	<path class="st0" d="M1062.3,777l-22.5,108.5l-32-6.6l52.1-251.7l32,6.6l-5.9,28.4c3.2-3.4,5.9-5.9,8-7.5c7.8-6,16.9-10,27.4-12.2
		c10.4-2.1,21.6-2,33.5,0.5c14.3,3,26.7,9.4,37,19.4s17.6,22.6,21.8,37.9c4.2,15.3,4.4,31.8,0.8,49.5c-3.6,17.5-10.5,32.1-20.7,44
		c-10.2,11.8-22.1,20.1-35.7,24.9c-13.7,4.8-27,5.8-40.1,3.1c-10-2.1-18.8-5.2-26.5-9.5s-14.1-9.4-19.2-15.6
		C1067.1,790.8,1063.8,784.2,1062.3,777L1062.3,777z M1072.9,720c-2.8,13.4-2.4,25,1.1,35s9,17.9,16.5,23.7
		c7.5,5.9,15.7,9.7,24.4,11.5c9.5,2,18.9,1.5,28.4-1.5s17.7-8.4,24.8-16.1c7.1-7.8,11.8-17.7,14.3-29.9c2.5-12.1,2.1-23.2-1.3-33.1
		c-3.4-9.9-8.8-18.2-16.4-24.7c-7.5-6.5-16-10.7-25.5-12.7c-8.5-1.8-17.1-1.6-25.9,0.5s-16.8,6.7-23.9,13.7s-12.4,16.6-15.7,28.9
		L1072.9,720L1072.9,720z"/>
	<path class="st0" d="M1236.1,895.9c-11.7-10.7-20.2-23.7-25.3-38.9c-5.1-15.2-6.1-30.9-2.8-47.2c3.2-16,10.2-30.1,20.9-42.3
		c10.7-12.1,23.6-20.9,38.7-26.3c15.1-5.4,30.5-6.5,46-3.4c16.8,3.4,31.1,10.5,43,21.2s20.2,24.1,24.9,40.1c4.7,16,5.3,33,1.6,51
		l-0.8,4l-144.7-29.3c-1.7,8.3-0.9,16.8,2.4,25.5c3.3,8.8,8.7,16.4,16.2,22.8c7.5,6.5,16.7,10.8,27.4,12.9
		c7.8,1.6,15.4,1.7,22.9,0.5c7.5-1.3,14.5-3.6,21.2-7.1c6.6-3.5,12.8-7.8,18.4-13l23.7,21.9c-5.8,5.9-12.5,11.5-20.2,16.6
		s-17.8,9.2-30.2,12.1c-12.4,2.9-26.3,2.8-41.9-0.3C1261.6,913.6,1247.8,906.7,1236.1,895.9L1236.1,895.9z M1353.7,819.2
		c1-4.9,0-10.9-3-18.1c-3-7.2-8.1-13.8-15.5-20s-16.6-10.4-27.8-12.6c-10.9-2.2-21.1-1.9-30.3,0.9c-9.3,2.8-16.8,6.9-22.4,12.3
		c-5.7,5.4-9,10.6-10,15.4L1353.7,819.2L1353.7,819.2z"/>
</g>
</svg>
