<?xml version="1.0" encoding="utf-8"?>
<!-- Generator: Adobe Illustrator 28.3.0, SVG Export Plug-In . SVG Version: 6.00 Build 0)  -->
<svg version="1.1" id="a" xmlns="http://www.w3.org/2000/svg" xmlns:xlink="http://www.w3.org/1999/xlink" x="0px" y="0px"
	 viewBox="0 0 1920 1080" style="enable-background:new 0 0 1920 1080;" xml:space="preserve">
<style type="text/css">
	.st0{fill:#FFFFFF;}
</style>
<g>
	<g>
		<path class="st0" d="M387.9,281.5h133.4c13.7,0,25.8,2.7,36.3,8.1s18.6,12.9,24.3,22.5s8.6,20.7,8.6,33.3c0,8.8-1.7,16.9-5.2,24.5
			c-3.5,7.5-8.2,13.8-14,18.9c-5.9,5.1-12.3,8.5-19.2,10.3c8.3,1.8,16.3,5.1,23.8,9.8c7.5,4.7,13.8,11.5,18.7,20.4
			c5,8.9,7.4,19.9,7.4,32.9c0,13.7-3.1,26.1-9.3,37.1s-15,19.7-26.3,26c-11.4,6.3-24.4,9.5-39,9.5H387.9V281.5L387.9,281.5z
			 M512.6,381.3c3-1.7,5.4-4.1,7.1-7.1s2.5-6.5,2.5-10.3c0-3.6-0.8-6.9-2.5-9.8s-4.1-5.3-7.1-7.1c-3-1.8-6.4-2.7-10-2.7h-35.5v39.5
			h35.5C506.3,383.8,509.6,383,512.6,381.3L512.6,381.3z M514,467.2c3-1.8,5.5-4.2,7.3-7.3c1.8-3,2.7-6.4,2.7-10
			c0-3.8-0.9-7.3-2.7-10.3s-4.2-5.5-7.3-7.3c-3-1.8-6.4-2.7-10-2.7h-36.8v40.2H504C507.6,469.9,510.9,469,514,467.2L514,467.2z"/>
		<path class="st0" d="M628.5,532.2c-9.1-3.9-16-9.3-20.6-16c-4.6-6.8-6.9-14.2-6.9-22.3c0-15.5,5.7-28.3,17.1-38.3
			c11.4-10,30.7-17.2,57.9-21.4l40.2-6.4c0-6.5-1.5-12.5-4.6-17.9s-7.7-8.1-14-8.1c-5.9,0-10.4,2.5-13.7,7.4
			c-3.3,5-5.2,11.3-5.9,18.9l-73.3-12.5c1.6-8.6,6.8-16.9,15.5-25.2c8.8-8.2,20.2-14.9,34.3-20.1s29.5-7.8,46.4-7.8
			c20.5,0,37.7,2.9,51.7,8.6s24.3,13.5,31.1,23.1c6.8,9.7,10.1,20.7,10.1,33.1v56.4c0,7,0.3,13.2,1,18.6s1.9,10.7,3.5,15.9
			c1.7,5.2,4.1,10.7,7.3,16.5h-81.7c-0.2-0.2-2.9-5.5-3.9-8.3s-1.9-5.6-2.5-8.3c-3.2,3.2-7.4,6.2-12.7,9.3c-5.3,3-11.7,5.6-19.1,7.6
			c-7.4,2-15.7,3-24.7,3C648.4,538.1,637.6,536.2,628.5,532.2L628.5,532.2z M702.9,490c3.8-2.1,7-5.3,9.5-9.6
			c2.5-4.3,3.7-9.2,3.7-14.9v-10.8c-2.9,1.8-5.9,3.4-8.8,4.7c-2.9,1.4-5.9,2.7-8.8,4.1c-0.9,0.2-2.3,0.8-4.1,1.7
			c-5.9,2.5-10.2,5-13,7.6s-4.2,5.6-4.2,9c0,2.3,0.7,4.2,2,5.9s3.1,3,5.2,4.1c2.1,1,4.4,1.5,6.9,1.5
			C695.3,493.2,699.1,492.2,702.9,490L702.9,490z"/>
		<path class="st0" d="M805.9,365.9h77.7v28c1.8-2.7,4.7-6.3,8.8-10.8c6.3-6.8,13.6-11.9,22-15.4c8.3-3.5,17.7-5.2,28-5.2
			c11,0,19.6,1.7,25.8,5.2s18.7,15,18.7,15l-57,68.3c-3.6-5.9-7.5-10.7-11.8-14.7c-4.3-3.9-8.8-5.9-13.5-5.9c-4.3,0-7.9,1.2-11,3.5
			c-3,2.4-5.4,5.6-6.9,9.8c-1.6,4.2-2.6,9-3,14.4v76.7H806L805.9,365.9L805.9,365.9z"/>
		<path class="st0" d="M1008.5,525.5c-15.1-8.4-26.3-19.4-33.6-32.8s-11-27.5-11-42.4c0-14.6,3.7-28.7,11-42.2s18.5-24.5,33.6-32.9
			s33.4-12.7,55-12.7c18,0,33.3,2.9,45.9,8.6s22.4,12.3,29.4,19.8c7,7.4,17.6,24,17.6,24l-70.9,26.7c0-0.7-4.1-12.3-7.6-16.5
			c-3.5-4.3-8.3-6.4-14.4-6.4c-4.5,0-8.4,1.4-11.8,4.2c-3.4,2.8-5.9,6.7-7.6,11.6c-1.7,5-2.5,10.4-2.5,16.2s0.8,11.2,2.5,16
			s4.2,8.7,7.6,11.5s7.3,4.2,11.8,4.2c5.9,0,10.3-1.7,13.3-5.1s8.6-15.3,8.6-15.5l70.9,25.3c0,0-11.3,17.1-18.4,24.3
			c-7.1,7.2-16.8,13.5-29.2,18.7c-12.4,5.3-27.5,7.9-45.3,7.9C1042,538.1,1023.6,533.9,1008.5,525.5L1008.5,525.5z"/>
		<path class="st0" d="M1200.2,526.5c-15.1-7.8-26.7-18.3-34.8-31.6c-8.1-13.3-12.2-28-12.2-44.2s4.1-31.1,12.2-44.6
			s19.7-24.1,34.8-31.9c15.1-7.8,32.6-11.7,52.7-11.7s37.6,3.9,52.7,11.8s26.7,18.5,34.8,31.9c8.1,13.4,12.2,28.2,12.2,44.4
			s-4.1,31-12.2,44.2c-8.1,13.3-19.7,23.8-34.8,31.6c-15.1,7.8-32.6,11.7-52.7,11.7S1215.3,534.3,1200.2,526.5z M1264.7,478.2
			c3.4-2.8,5.9-6.6,7.6-11.5c1.7-4.8,2.5-10.2,2.5-16s-0.8-11.3-2.5-16.2c-1.7-4.9-4.2-8.8-7.6-11.6c-3.4-2.8-7.3-4.2-11.8-4.2
			s-8.4,1.4-11.8,4.2c-3.4,2.8-5.9,6.7-7.6,11.6c-1.7,5-2.5,10.4-2.5,16.2s0.8,11.2,2.5,16s4.2,8.7,7.6,11.5s7.3,4.2,11.8,4.2
			S1261.3,481,1264.7,478.2L1264.7,478.2z"/>
	</g>
	<g>
		<path class="st0" d="M387.9,545.2h81v182.4h119.9v70.9H387.9V545.2L387.9,545.2z"/>
		<path class="st0" d="M637.8,790.2c-15.1-7.8-26.7-18.3-34.8-31.6s-12.2-28-12.2-44.2s4.1-31.1,12.2-44.6
			c8.1-13.5,19.7-24.1,34.8-31.9c15.1-7.8,32.6-11.7,52.7-11.7s37.6,3.9,52.7,11.8c15.1,7.9,26.7,18.5,34.8,31.9
			s12.2,28.2,12.2,44.4s-4.1,31-12.2,44.2c-8.1,13.3-19.7,23.8-34.8,31.6s-32.6,11.7-52.7,11.7S652.8,798,637.8,790.2z M702.2,741.9
			c3.4-2.8,5.9-6.6,7.6-11.5c1.7-4.8,2.5-10.2,2.5-16s-0.8-11.3-2.5-16.2s-4.2-8.8-7.6-11.7c-3.4-2.8-7.3-4.2-11.8-4.2
			s-8.4,1.4-11.8,4.2c-3.4,2.8-5.9,6.7-7.6,11.7c-1.7,5-2.5,10.4-2.5,16.2s0.8,11.2,2.5,16s4.2,8.7,7.6,11.5
			c3.4,2.8,7.3,4.2,11.8,4.2S698.9,744.8,702.2,741.9z"/>
		<path class="st0" d="M821.3,792.3c-8.8-6.4-15.3-15.5-19.6-27.2s-6.4-25.5-6.4-41.5v-93.9H873v72.9c0,9.5,1.5,17.1,4.6,22.8
			c3,5.7,7.9,8.6,14.7,8.6c4.5,0,8.3-1.3,11.5-4.1c3.2-2.7,5.5-6.4,7.1-11.1c1.6-4.7,2.4-10.1,2.4-16.2v-72.9H991v168.9h-77.7v-28
			l-2,2.4c-7.4,9.5-15.7,16.7-24.8,21.6c-9.1,4.9-19.8,7.4-31.9,7.4C841.1,801.9,830.1,798.7,821.3,792.3L821.3,792.3z"/>
		<path class="st0" d="M1034.4,791.3c-11.6-7.1-20.9-17.3-27.9-30.6S996,731.8,996,713.8c0-17.8,3.5-33.3,10.6-46.6
			s16.5-23.4,28.2-30.4s24.2-10.5,37.5-10.5c8.6,0,16.5,0.9,23.8,2.7s14.1,4.4,20.3,7.9c6.2,3.5,12.2,7.9,18.1,13.3v-105h77.7v253.3
			h-77.7v-24.7c-2.3,2.7-4.7,5.2-7.4,7.4c-7.4,6.3-15.8,11.3-25,15s-19.1,5.6-29.7,5.6C1058.6,801.9,1046,798.3,1034.4,791.3
			L1034.4,791.3z M1124.5,741.8c3.3-2.7,5.8-6.3,7.6-10.8c1.8-4.5,2.8-9.6,3-15.2v-2c0-5.9-0.8-11.2-2.5-16s-4.2-8.7-7.6-11.5
			s-7.3-4.2-11.8-4.2s-8.4,1.4-11.8,4.2s-5.9,6.6-7.6,11.5c-1.7,4.8-2.5,10.2-2.5,16s0.8,11.3,2.5,16.2c1.7,5,4.2,8.8,7.6,11.7
			c3.4,2.8,7.3,4.2,11.8,4.2C1117.5,745.8,1121.3,744.5,1124.5,741.8L1124.5,741.8z"/>
		<path class="st0" d="M1222.6,545.2h77.7v253.3h-77.7V545.2z"/>
		<path class="st0" d="M1380.5,798.5l-78.7-168.9h76.7l39.5,95.2l39.5-95.2h74.6l-85.8,186.1c-5.6,12.6-12.3,23.1-20.1,31.4
			c-7.8,8.3-17.2,14.7-28.4,19.1c-11.1,4.4-24.4,6.6-39.7,6.6c-18,0-32.6-2.6-43.9-7.9c-11.3-5.3-20.9-12.3-29-21.1l49-48.3
			c0,0,7.3,12.9,11,17.2s8,6.4,13,6.4c2.5,0,4.9-0.7,7.4-2c2.5-1.4,4.9-3.3,7.3-5.9c2.4-2.6,4.4-5.8,6.2-9.6L1380.5,798.5
			L1380.5,798.5z"/>
	</g>
</g>
</svg>
