<?xml version="1.0" encoding="UTF-8"?>
<svg id="b" data-name="Layer 2" xmlns="http://www.w3.org/2000/svg" width="851.004" height="908.14" viewBox="0 0 851.004 908.14">
  <g id="c" data-name="a">
    <g>
      <path d="M527.8,436.3c-13.1-9.1-23.2-20.8-30.3-35.2-7.1-14.4-10.2-29.9-9.1-46.4,1.1-16.3,6.1-31.2,15-44.7,9-13.4,20.6-23.9,34.8-31.3,14.3-7.4,29.3-10.6,45.2-9.5,14.3.9,26.6,4.1,36.8,9.5,10.2,5.4,18.3,11.4,24.2,18,5.9,6.6,11.2,13.7,15.9,21.2l1,1.6-29.3,15.6c-.4-.8-.9-1.5-1.3-2.3-5.6-9.1-12.5-16.3-20.6-21.7-8.1-5.4-17.7-8.4-28.8-9.2-9.9-.6-19.4,1.4-28.5,6.1s-16.6,11.5-22.4,20.2-9,18.2-9.7,28.6c-.7,10.6,1.3,20.6,5.9,30s11.1,16.9,19.4,22.7c8.3,5.8,17.5,9,27.7,9.6,11.1.7,21.1-1,30-5.3s17.8-11.9,23.8-19.9c.8-1,1.4-1.9,1.4-1.9l26.6,18.6-.4.7c-5.5,7.3-11.3,13.9-17.5,19.7s-14.9,10.9-26,15.3c-11.1,4.4-24.4,6-40,5-16.1-.8-30.7-5.9-43.8-15h0Z" fill="#fff" stroke-width="0"/>
      <path d="M724.7,281.2l30.1,12.8-52.8,123.9,3-2.4c11.3-7.6,22.6-11.5,33.9-11.8s22.1,1.7,32.4,6.1c11.2,4.8,20.3,11.5,27.4,20.2s11.4,18.9,12.9,30.5c1.5,11.7-.6,24.3-6.4,37.7l-43.4,102-30.1-12.8,38.8-91c6.6-15.5,8-28.5,4.1-39.1-3.9-10.5-11.8-18.4-23.9-23.5-9.1-3.9-18.1-5.2-27-4s-16.9,4.9-24.1,11-13.1,14.2-17.7,24.4l-36.4,85.5-30.1-12.8,109.3-256.7h0Z" fill="#fff" stroke-width="0"/>
      <path d="M161.8,665.1l-90.7,20.5-6.6-29,214-48.4,6.6,29-90.6,20.5,55,243-32.6,7.4-55.1-243h0Z" fill="#fff" stroke-width="0"/>
      <path d="M342.4,310.3c-13.9-8.2-24.9-19.2-33.1-33.1s-12.3-29.1-12.3-45.7c0-16.4,4.1-31.6,12.3-45.7s19.2-25.3,33.1-33.5c13.9-8.2,29.1-12.3,45.7-12.3,16.4,0,31.5,4.2,45.6,12.5,14,8.3,25.1,19.5,33.3,33.5s12.3,29.2,12.3,45.6c0,16.6-4.1,31.9-12.3,45.7-8.2,13.9-19.3,24.9-33.3,33.1s-29.2,12.3-45.6,12.3c-16.6-.1-31.8-4.2-45.7-12.4h0ZM417.3,283.4c9-5.3,16.2-12.6,21.4-21.8,5.2-9.2,7.8-19.2,7.8-30.1s-2.7-20.9-8-30.1-12.5-16.5-21.4-21.9c-8.9-5.5-18.6-8.2-29-8.2-10.7,0-20.5,2.7-29.4,8.2s-16.1,12.8-21.4,21.9c-5.3,9.2-8,19.2-8,30.1s2.7,21,8,30.1c5.3,9.2,12.5,16.4,21.4,21.8,8.9,5.3,18.7,8,29.4,8,10.5,0,20.2-2.7,29.2-8h0Z" fill="#fff" stroke-width="0"/>
      <path d="M530.9,242.6c-13.9-8.2-24.9-19.2-33.1-33.1s-12.3-29.1-12.3-45.7c0-16.4,4.1-31.6,12.3-45.7,8.2-14.1,19.2-25.3,33.1-33.5s29.1-12.3,45.7-12.3c16.4,0,31.6,4.2,45.6,12.5s25.1,19.5,33.3,33.5c8.2,14,12.3,29.2,12.3,45.6,0,16.6-4.1,31.9-12.3,45.7-8.2,13.9-19.3,24.9-33.3,33.1s-29.2,12.3-45.6,12.3c-16.6-.1-31.8-4.2-45.7-12.4h0ZM605.8,215.7c9-5.3,16.2-12.6,21.4-21.8,5.2-9.2,7.8-19.2,7.8-30.1s-2.7-20.9-8-30.1c-5.3-9.2-12.5-16.5-21.4-21.9-8.9-5.5-18.6-8.2-29-8.2-10.7,0-20.5,2.7-29.4,8.2s-16.1,12.8-21.4,21.9c-5.3,9.2-8,19.2-8,30.1s2.7,21,8,30.1c5.3,9.2,12.5,16.4,21.4,21.8,8.9,5.3,18.7,8,29.4,8,10.5,0,20.2-2.7,29.2-8h0Z" fill="#fff" stroke-width="0"/>
      <path d="M71.7,321.6l-38.7,234.1-33-5.5,45.5-275.2,51.4,8.5,48.3,241.7,123.4-213.3,51.4,8.5-45.5,275.1-33-5.5,38.7-234.1-127.5,219.5-30.8-5.1-50.2-248.7h0Z" fill="#fff" stroke-width="0"/>
      <path d="M382.9,570.4c-10.6-3.2-19.6-9.3-27.1-18.3s-12.6-20.8-15.4-35.1l-20.6-108.9,32.2-6.1,19.7,104.1c2.5,13.4,8.2,23.1,16.8,29,8.7,5.9,19.3,7.7,31.7,5.4,10-1.9,18.3-5.9,25-12.1,6.6-6.2,11.2-13.9,13.8-23.2,2.5-9.3,2.7-19.6.6-30.8l-17-89.5,32.2-5.7,32.5,171.7-32.2,6.1s-4.5-23.8-5.7-30.3l-1.2,3.6c-5.2,12.3-12.5,21.9-21.7,28.5-9.2,6.7-19.2,11-29.9,13-11.9,2.2-23.1,1.8-33.7-1.4h0Z" fill="#fff" stroke-width="0"/>
      <path d="M193.7,57.9l-90.5,21.2-6.8-29L310,0l6.8,29-90.5,21.2,56.9,242.6-32.6,7.6-56.9-242.5Z" fill="#fff" stroke-width="0"/>
      <path d="M360.7,839.8l5.6-12.1-76.4-177.4,35.3,1,58.9,138.2,66.7-134.6,35.3,1-101.4,203.6c-3.7,7.6-8.3,15-13.8,22.1-5.5,7.2-13,13.5-22.3,18.9s-20.2,8-32.6,7.6c-13.4-.4-24.1-3.5-32.3-9.5-8.1-5.9-15-12.6-20.5-19.9l22.2-20.6c5.3,6.3,10,11,14.3,14s10.1,4.6,17.5,4.8c6.2.2,11.6-.8,16.3-2.9,4.6-2.1,8.9-5.5,12.8-10.1,3.9-4.6,7.8-10.8,11.7-18.6l2.7-5.5h0Z" fill="#fff" stroke-width="0"/>
      <path d="M527.8,691.1l-22.5,108.5-32-6.6,52.1-251.7,32,6.6-5.9,28.4c3.2-3.4,5.9-5.9,8-7.5,7.8-6,16.9-10,27.4-12.2,10.4-2.1,21.6-2,33.5.5,14.3,3,26.7,9.4,37,19.4s17.6,22.6,21.8,37.9c4.2,15.3,4.4,31.8.8,49.5-3.6,17.5-10.5,32.1-20.7,44-10.2,11.8-22.1,20.1-35.7,24.9-13.7,4.8-27,5.8-40.1,3.1-10-2.1-18.8-5.2-26.5-9.5s-14.1-9.4-19.2-15.6c-5.2-5.9-8.5-12.5-10-19.7h0ZM538.4,634.1c-2.8,13.4-2.4,25,1.1,35s9,17.9,16.5,23.7c7.5,5.9,15.7,9.7,24.4,11.5,9.5,2,18.9,1.5,28.4-1.5s17.7-8.4,24.8-16.1c7.1-7.8,11.8-17.7,14.3-29.9,2.5-12.1,2.1-23.2-1.3-33.1-3.4-9.9-8.8-18.2-16.4-24.7-7.5-6.5-16-10.7-25.5-12.7-8.5-1.8-17.1-1.6-25.9.5s-16.8,6.7-23.9,13.7-12.4,16.6-15.7,28.9l-.8,4.7h0Z" fill="#fff" stroke-width="0"/>
      <path d="M701.6,810c-11.7-10.7-20.2-23.7-25.3-38.9-5.1-15.2-6.1-30.9-2.8-47.2,3.2-16,10.2-30.1,20.9-42.3,10.7-12.1,23.6-20.9,38.7-26.3,15.1-5.4,30.5-6.5,46-3.4,16.8,3.4,31.1,10.5,43,21.2s20.2,24.1,24.9,40.1c4.7,16,5.3,33,1.6,51l-.8,4-144.7-29.3c-1.7,8.3-.9,16.8,2.4,25.5,3.3,8.8,8.7,16.4,16.2,22.8,7.5,6.5,16.7,10.8,27.4,12.9,7.8,1.6,15.4,1.7,22.9.5,7.5-1.3,14.5-3.6,21.2-7.1,6.6-3.5,12.8-7.8,18.4-13l23.7,21.9c-5.8,5.9-12.5,11.5-20.2,16.6s-17.8,9.2-30.2,12.1c-12.4,2.9-26.3,2.8-41.9-.3-15.9-3.1-29.7-10-41.4-20.8h0ZM819.2,733.3c1-4.9,0-10.9-3-18.1-3-7.2-8.1-13.8-15.5-20s-16.6-10.4-27.8-12.6c-10.9-2.2-21.1-1.9-30.3.9-9.3,2.8-16.8,6.9-22.4,12.3-5.7,5.4-9,10.6-10,15.4l109,22.1h0Z" fill="#fff" stroke-width="0"/>
    </g>
  </g>
</svg>