<svg viewBox="0 0 100 100"><polygon points="20 60 10 60 10 90 40 90 40 80 30 80 30 70 20 70 20 60"/><rect x="30" y="60" width="10" height="10"/><rect x="60" y="30" width="10" height="10"/><polygon points="60 10 60 20 70 20 70 30 80 30 80 40 90 40 90 10 60 10"/><polygon points="40 20 40 10 10 10 10 40 20 40 20 30 30 30 30 20 40 20"/><rect x="30" y="30" width="10" height="10"/><rect x="40" y="40" width="20" height="20"/><rect x="60" y="60" width="10" height="10"/><polygon points="60 80 60 90 90 90 90 60 80 60 80 70 70 70 70 80 60 80"/></svg>