<svg viewBox="0 0 100 100"><polygon points="30 90 40 90 40 60 10 60 10 70 20 70 20 80 30 80 30 90"/><rect x="10" y="80" width="10" height="10"/><rect x="80" y="10" width="10" height="10"/><polygon points="90 40 90 30 80 30 80 20 70 20 70 10 60 10 60 40 90 40"/><polygon points="10 30 10 40 40 40 40 10 30 10 30 20 20 20 20 30 10 30"/><rect x="10" y="10" width="10" height="10"/><rect x="80" y="80" width="10" height="10"/><polygon points="90 70 90 60 60 60 60 90 70 90 70 80 80 80 80 70 90 70"/></svg>