<svg viewBox="0 0 100 100"><rect x="50" y="10" width="10" height="10"/><rect x="10" y="30" width="10" height="10"/><polygon points="90 10 90 30 80 30 80 20 70 20 70 10 90 10"/><rect x="80" y="80" width="10" height="10"/><rect x="10" y="10" width="10" height="10"/><rect x="10" y="50" width="10" height="10"/><polygon points="20 80 30 80 30 90 10 90 10 70 20 70 20 80"/><rect x="60" y="80" width="10" height="10"/><rect x="80" y="60" width="10" height="10"/><rect x="30" y="10" width="10" height="10"/><rect x="80" y="40" width="10" height="10"/><rect x="40" y="80" width="10" height="10"/></svg>