<svg viewBox="0 0 100 100"><polygon points="30 70 20 70 20 60 10 60 10 90 40 90 40 80 30 80 30 70"/><rect x="20" y="50" width="10" height="10"/><rect x="30" y="40" width="10" height="10"/><rect x="40" y="30" width="10" height="10"/><polygon points="80 30 80 20 70 20 70 10 60 10 60 20 50 20 50 30 60 30 60 40 70 40 70 50 80 50 80 40 90 40 90 30 80 30"/><rect x="60" y="50" width="10" height="10"/><rect x="50" y="40" width="10" height="10"/><rect x="50" y="60" width="10" height="10"/><rect x="40" y="70" width="10" height="10"/></svg>