<svg viewBox="0 0 100 100"><polygon points="70 40 70 30 60 30 60 20 70 20 70 10 80 10 80 20 90 20 90 30 80 30 80 40 70 40"/><rect x="10" y="70" width="20" height="10"/><rect x="50" y="60" width="10" height="10"/><rect x="10" y="20" width="20" height="10"/><rect x="50" y="30" width="10" height="10"/><rect x="30" y="60" width="10" height="10"/><polygon points="60 80 60 70 70 70 70 60 80 60 80 70 90 70 90 80 80 80 80 90 70 90 70 80 60 80"/><rect x="40" y="40" width="10" height="20"/><rect x="30" y="30" width="10" height="10"/></svg>